<?xml version="1.0" encoding="UTF-8"?>
<svg xmlns="http://www.w3.org/2000/svg" xmlns:xlink="http://www.w3.org/1999/xlink" width="30pt" height="30pt" viewBox="0 0 30 30" version="1.1">
<g id="surface1">
<path style=" stroke:none;fill-rule:nonzero;fill:rgb(0%,0%,0%);fill-opacity:1;" d="M 23.441406 14.304688 L 9.4375 0.300781 C 9.238281 0.101562 9.007812 0 8.746094 0 C 8.484375 0 8.253906 0.101562 8.054688 0.300781 L 6.550781 1.804688 C 6.351562 2.003906 6.25 2.234375 6.25 2.496094 C 6.25 2.753906 6.351562 2.984375 6.550781 3.1875 L 18.363281 14.996094 L 6.550781 26.808594 C 6.351562 27.007812 6.25 27.238281 6.25 27.5 C 6.25 27.761719 6.351562 27.992188 6.550781 28.191406 L 8.054688 29.691406 C 8.253906 29.894531 8.484375 29.992188 8.746094 29.992188 C 9.007812 29.992188 9.238281 29.894531 9.4375 29.691406 L 23.441406 15.6875 C 23.640625 15.488281 23.742188 15.257812 23.742188 14.996094 C 23.742188 14.738281 23.640625 14.507812 23.441406 14.304688 Z M 23.441406 14.304688 "/>
</g>
</svg>
