<?xml version="1.0" encoding="UTF-8"?>
<svg xmlns="http://www.w3.org/2000/svg" xmlns:xlink="http://www.w3.org/1999/xlink" width="30pt" height="30pt" viewBox="0 0 30 30" version="1.1">
<g id="surface1">
<path style=" stroke:none;fill-rule:nonzero;fill:rgb(0%,0%,0%);fill-opacity:1;" d="M 11.628906 14.996094 L 23.441406 3.1875 C 23.640625 2.984375 23.742188 2.753906 23.742188 2.496094 C 23.742188 2.234375 23.640625 2.003906 23.441406 1.804688 L 21.9375 0.300781 C 21.738281 0.101562 21.507812 0 21.246094 0 C 20.988281 0 20.757812 0.101562 20.558594 0.300781 L 6.550781 14.304688 C 6.351562 14.503906 6.25 14.734375 6.25 14.996094 C 6.25 15.257812 6.351562 15.488281 6.550781 15.6875 L 20.554688 29.691406 C 20.757812 29.894531 20.988281 29.992188 21.246094 29.992188 C 21.507812 29.992188 21.738281 29.894531 21.9375 29.691406 L 23.441406 28.191406 C 23.640625 27.988281 23.742188 27.757812 23.742188 27.5 C 23.742188 27.238281 23.640625 27.007812 23.441406 26.808594 Z M 11.628906 14.996094 "/>
</g>
</svg>
