<?xml version="1.0" encoding="UTF-8"?>
<svg xmlns="http://www.w3.org/2000/svg" xmlns:xlink="http://www.w3.org/1999/xlink" width="20pt" height="20pt" viewBox="0 0 20 20" version="1.1">
<g id="surface1">
<path style=" stroke:none;fill-rule:nonzero;fill:rgb(82.745098%,51.764706%,23.921569%);fill-opacity:1;" d="M 1.875 2.5 L 2.5 2.5 L 2.5 3.75 L 1.875 3.75 Z M 1.875 2.5 "/>
<path style=" stroke:none;fill-rule:nonzero;fill:rgb(82.745098%,51.764706%,23.921569%);fill-opacity:1;" d="M 17.5 2.5 L 18.125 2.5 L 18.125 3.75 L 17.5 3.75 Z M 17.5 2.5 "/>
<path style=" stroke:none;fill-rule:nonzero;fill:rgb(82.745098%,51.764706%,23.921569%);fill-opacity:1;" d="M 9.0625 14.0625 L 10.9375 14.0625 L 10.9375 19.0625 L 9.0625 19.0625 Z M 9.0625 14.0625 "/>
<path style=" stroke:none;fill-rule:nonzero;fill:rgb(82.745098%,51.764706%,23.921569%);fill-opacity:1;" d="M 9.0625 14.0625 L 7.8125 19.0625 L 5.9375 19.0625 L 6.25 17.8125 L 5.625 17.8125 L 5.625 16.5625 L 6.5625 16.5625 L 7.1875 14.0625 Z M 9.0625 14.0625 "/>
<path style=" stroke:none;fill-rule:nonzero;fill:rgb(82.745098%,51.764706%,23.921569%);fill-opacity:1;" d="M 14.0625 16.5625 L 13.4375 16.5625 L 14.0625 19.0625 L 12.1875 19.0625 L 10.9375 14.0625 L 12.8125 14.0625 L 13.125 15.3125 L 14.0625 15.3125 Z M 14.0625 16.5625 "/>
<path style=" stroke:none;fill-rule:nonzero;fill:rgb(67.843137%,38.823529%,15.294118%);fill-opacity:1;" d="M 7.5 15.9375 L 7.5 16.5625 L 6.5625 16.5625 L 6.71875 15.9375 Z M 7.5 15.9375 "/>
<path style=" stroke:none;fill-rule:nonzero;fill:rgb(67.843137%,38.823529%,15.294118%);fill-opacity:1;" d="M 7.1875 17.8125 L 7.1875 18.4375 L 6.09375 18.4375 L 6.25 17.8125 Z M 7.1875 17.8125 "/>
<path style=" stroke:none;fill-rule:nonzero;fill:rgb(67.843137%,38.823529%,15.294118%);fill-opacity:1;" d="M 13.125 15.3125 L 12.1875 15.3125 L 12.1875 14.6875 L 12.96875 14.6875 Z M 13.125 15.3125 "/>
<path style=" stroke:none;fill-rule:nonzero;fill:rgb(67.843137%,38.823529%,15.294118%);fill-opacity:1;" d="M 13.59375 17.1875 L 12.5 17.1875 L 12.5 16.5625 L 13.4375 16.5625 Z M 13.59375 17.1875 "/>
<path style=" stroke:none;fill-rule:nonzero;fill:rgb(67.843137%,38.823529%,15.294118%);fill-opacity:1;" d="M 12.8125 17.8125 L 12.8125 18.4375 L 12.03125 18.4375 L 11.875 17.8125 Z M 12.8125 17.8125 "/>
<path style=" stroke:none;fill-rule:nonzero;fill:rgb(67.843137%,38.823529%,15.294118%);fill-opacity:1;" d="M 9.0625 15 L 10 15 L 10 15.625 L 9.0625 15.625 Z M 9.0625 15 "/>
<path style=" stroke:none;fill-rule:nonzero;fill:rgb(67.843137%,38.823529%,15.294118%);fill-opacity:1;" d="M 10 16.25 L 10.9375 16.25 L 10.9375 16.875 L 10 16.875 Z M 10 16.25 "/>
<path style=" stroke:none;fill-rule:nonzero;fill:rgb(67.843137%,38.823529%,15.294118%);fill-opacity:1;" d="M 9.0625 17.5 L 10 17.5 L 10 18.125 L 9.0625 18.125 Z M 9.0625 17.5 "/>
<path style=" stroke:none;fill-rule:nonzero;fill:rgb(67.843137%,38.823529%,15.294118%);fill-opacity:1;" d="M 7.8125 14.6875 L 7.8125 15.3125 L 6.875 15.3125 L 7.03125 14.6875 Z M 7.8125 14.6875 "/>
<path style=" stroke:none;fill-rule:nonzero;fill:rgb(91.372549%,45.490196%,14.117647%);fill-opacity:1;" d="M 12.5 9.375 C 12.5 10 11.5625 10.625 11.5625 10.625 C 11.5625 9.0625 10.625 9.6875 10.9375 7.8125 C 11.25 5.9375 10 5.625 10 5.625 C 9.929688 6.503906 9.472656 7.304688 8.75 7.8125 C 7.5 8.75 8.125 9.6875 8.125 9.6875 C 7.5 9.375 6.875 8.4375 6.875 8.4375 C 6.25 9.6875 7.1875 9.375 6.875 11.5625 C 6.5625 13.75 8.949219 14.0625 10 14.0625 C 10.9375 14.0625 12.1875 13.75 12.8125 12.5 C 13.902344 10.316406 12.5 9.375 12.5 9.375 Z M 12.5 9.375 "/>
<path style=" stroke:none;fill-rule:nonzero;fill:rgb(98.823529%,94.117647%,35.294118%);fill-opacity:1;" d="M 10 14.0625 C 9.0625 14.0625 8.125 13.125 8.125 11.875 L 8.125 10.9375 L 9.0625 11.25 C 9.0625 10.9375 9.0625 10 9.6875 9.375 C 10.625 10 10.3125 10.9375 10.9375 11.875 C 11.265625 11.820312 11.582031 11.714844 11.875 11.5625 C 11.875 11.5625 11.875 14.0625 10 14.0625 Z M 10 14.0625 "/>
<path style=" stroke:none;fill-rule:nonzero;fill:rgb(40%,20.392157%,18.039216%);fill-opacity:1;" d="M 5 2.8125 L 1.5625 2.8125 C 1.390625 2.8125 1.25 2.671875 1.25 2.5 C 1.25 2.328125 1.390625 2.1875 1.5625 2.1875 L 5 2.1875 C 5.171875 2.1875 5.3125 2.328125 5.3125 2.5 C 5.3125 2.671875 5.171875 2.8125 5 2.8125 Z M 5 2.8125 "/>
<path style=" stroke:none;fill-rule:nonzero;fill:rgb(40%,20.392157%,18.039216%);fill-opacity:1;" d="M 18.4375 2.8125 L 15 2.8125 C 14.828125 2.8125 14.6875 2.671875 14.6875 2.5 C 14.6875 2.328125 14.828125 2.1875 15 2.1875 L 18.4375 2.1875 C 18.609375 2.1875 18.75 2.328125 18.75 2.5 C 18.75 2.671875 18.609375 2.8125 18.4375 2.8125 Z M 18.4375 2.8125 "/>
<path style=" stroke:none;fill-rule:nonzero;fill:rgb(67.843137%,38.823529%,15.294118%);fill-opacity:1;" d="M 1.5625 3.75 L 2.8125 3.75 L 2.8125 19.0625 L 1.5625 19.0625 Z M 1.5625 3.75 "/>
<path style=" stroke:none;fill-rule:nonzero;fill:rgb(67.843137%,38.823529%,15.294118%);fill-opacity:1;" d="M 17.1875 3.75 L 18.4375 3.75 L 18.4375 19.0625 L 17.1875 19.0625 Z M 17.1875 3.75 "/>
<path style=" stroke:none;fill-rule:nonzero;fill:rgb(86.666667%,24.313725%,27.45098%);fill-opacity:1;" d="M 6.875 6.5625 L 7.5 6.5625 L 7.5 7.1875 L 6.875 7.1875 Z M 6.875 6.5625 "/>
<path style=" stroke:none;fill-rule:nonzero;fill:rgb(86.666667%,24.313725%,27.45098%);fill-opacity:1;" d="M 11.875 7.5 L 12.5 7.5 L 12.5 8.125 L 11.875 8.125 Z M 11.875 7.5 "/>
<path style=" stroke:none;fill-rule:nonzero;fill:rgb(86.666667%,24.313725%,27.45098%);fill-opacity:1;" d="M 11.5625 5 L 12.1875 5 L 12.1875 5.625 L 11.5625 5.625 Z M 11.5625 5 "/>
<path style=" stroke:none;fill-rule:nonzero;fill:rgb(86.666667%,24.313725%,27.45098%);fill-opacity:1;" d="M 8.4375 5.3125 L 9.0625 5.3125 L 9.0625 5.9375 L 8.4375 5.9375 Z M 8.4375 5.3125 "/>
<path style=" stroke:none;fill-rule:nonzero;fill:rgb(97.647059%,73.333333%,29.411765%);fill-opacity:1;" d="M 1.5625 17.8125 L 2.8125 17.8125 L 2.8125 19.0625 L 1.5625 19.0625 Z M 1.5625 17.8125 "/>
<path style=" stroke:none;fill-rule:nonzero;fill:rgb(97.647059%,73.333333%,29.411765%);fill-opacity:1;" d="M 17.1875 17.8125 L 18.4375 17.8125 L 18.4375 19.0625 L 17.1875 19.0625 Z M 17.1875 17.8125 "/>
<path style=" stroke:none;fill-rule:nonzero;fill:rgb(57.254902%,80.392157%,87.058824%);fill-opacity:1;" d="M 7.515625 1.023438 C 7.925781 0.964844 8.335938 0.9375 8.75 0.9375 C 9.925781 0.925781 11.09375 1.136719 12.1875 1.5625 C 12.699219 1.710938 13.222656 1.816406 13.75 1.875 L 15 1.25 L 15 3.75 L 13.75 3.125 C 13.222656 3.183594 12.699219 3.289062 12.1875 3.4375 C 11.09375 3.863281 9.925781 4.074219 8.75 4.0625 C 8.335938 4.0625 7.925781 4.035156 7.515625 3.976562 Z M 7.515625 1.023438 "/>
<path style=" stroke:none;fill-rule:nonzero;fill:rgb(30.196078%,65.098039%,91.764706%);fill-opacity:1;" d="M 8.125 2.5 C 8.128906 3.054688 7.910156 3.585938 7.515625 3.976562 C 6.179688 3.78125 5.191406 3.28125 5.023438 2.679688 C 4.992188 2.5625 4.992188 2.4375 5.023438 2.320312 C 5.191406 1.71875 6.179688 1.21875 7.515625 1.023438 C 7.910156 1.414062 8.128906 1.945312 8.125 2.5 Z M 8.125 2.5 "/>
<path style=" stroke:none;fill-rule:nonzero;fill:rgb(30.196078%,65.098039%,91.764706%);fill-opacity:1;" d="M 9.285156 3.347656 L 8.839844 2.902344 C 8.957031 2.800781 9.023438 2.652344 9.023438 2.5 C 9.023438 2.34375 8.957031 2.195312 8.839844 2.09375 L 9.285156 1.652344 C 9.515625 1.875 9.648438 2.179688 9.648438 2.5 C 9.648438 2.820312 9.515625 3.125 9.285156 3.347656 Z M 9.285156 3.347656 "/>
<path style=" stroke:none;fill-rule:nonzero;fill:rgb(30.196078%,65.098039%,91.764706%);fill-opacity:1;" d="M 10.535156 3.347656 L 10.089844 2.902344 C 10.207031 2.800781 10.273438 2.652344 10.273438 2.5 C 10.273438 2.34375 10.207031 2.195312 10.089844 2.09375 L 10.535156 1.652344 C 10.765625 1.875 10.898438 2.179688 10.898438 2.5 C 10.898438 2.820312 10.765625 3.125 10.535156 3.347656 Z M 10.535156 3.347656 "/>
</g>
</svg>
